<mxfile host="65bd71144e">
    <diagram id="8He1JqgvIxCBEZGFDIt_" name="Page-1">
        <mxGraphModel dx="1265" dy="1450" grid="1" gridSize="10" guides="1" tooltips="1" connect="1" arrows="1" fold="1" page="1" pageScale="1" pageWidth="850" pageHeight="1100" math="0" shadow="0">
            <root>
                <mxCell id="0"/>
                <mxCell id="1" parent="0"/>
                <mxCell id="zxLDTP8MKAiiS-CQgnzt-19" value="&lt;b style=&quot;text-align: left&quot;&gt;Theranos&lt;/b&gt;" style="rounded=1;whiteSpace=wrap;html=1;fillColor=none;" parent="1" vertex="1">
                    <mxGeometry x="-160" y="360" width="120" height="60" as="geometry"/>
                </mxCell>
                <mxCell id="zxLDTP8MKAiiS-CQgnzt-20" value="&lt;b style=&quot;text-align: left&quot;&gt;Lumos&lt;/b&gt;" style="rounded=1;whiteSpace=wrap;html=1;fillColor=none;" parent="1" vertex="1">
                    <mxGeometry x="-160" y="280" width="120" height="60" as="geometry"/>
                </mxCell>
                <mxCell id="zxLDTP8MKAiiS-CQgnzt-21" value="&lt;span style=&quot;text-align: left&quot;&gt;Jawbone&lt;/span&gt;" style="rounded=1;whiteSpace=wrap;html=1;fillColor=none;fontStyle=1" parent="1" vertex="1">
                    <mxGeometry x="-160" y="200" width="120" height="60" as="geometry"/>
                </mxCell>
                <mxCell id="sr7qanjQtjL95LeXf6Ad-4" style="edgeStyle=orthogonalEdgeStyle;rounded=0;orthogonalLoop=1;jettySize=auto;html=1;exitX=0.5;exitY=1;exitDx=0;exitDy=0;entryX=1;entryY=0.5;entryDx=0;entryDy=0;" parent="1" source="zxLDTP8MKAiiS-CQgnzt-22" target="zxLDTP8MKAiiS-CQgnzt-21" edge="1">
                    <mxGeometry relative="1" as="geometry"/>
                </mxCell>
                <mxCell id="sr7qanjQtjL95LeXf6Ad-5" style="edgeStyle=orthogonalEdgeStyle;rounded=0;orthogonalLoop=1;jettySize=auto;html=1;exitX=0.5;exitY=1;exitDx=0;exitDy=0;entryX=1;entryY=0.5;entryDx=0;entryDy=0;" parent="1" source="zxLDTP8MKAiiS-CQgnzt-22" target="zxLDTP8MKAiiS-CQgnzt-20" edge="1">
                    <mxGeometry relative="1" as="geometry"/>
                </mxCell>
                <mxCell id="sr7qanjQtjL95LeXf6Ad-6" style="edgeStyle=orthogonalEdgeStyle;rounded=0;orthogonalLoop=1;jettySize=auto;html=1;exitX=0.5;exitY=1;exitDx=0;exitDy=0;entryX=1;entryY=0.5;entryDx=0;entryDy=0;" parent="1" source="zxLDTP8MKAiiS-CQgnzt-22" target="zxLDTP8MKAiiS-CQgnzt-19" edge="1">
                    <mxGeometry relative="1" as="geometry"/>
                </mxCell>
                <mxCell id="sr7qanjQtjL95LeXf6Ad-7" style="edgeStyle=orthogonalEdgeStyle;rounded=0;orthogonalLoop=1;jettySize=auto;html=1;exitX=0.5;exitY=1;exitDx=0;exitDy=0;entryX=1;entryY=0.5;entryDx=0;entryDy=0;" parent="1" source="zxLDTP8MKAiiS-CQgnzt-22" target="sr7qanjQtjL95LeXf6Ad-1" edge="1">
                    <mxGeometry relative="1" as="geometry"/>
                </mxCell>
                <mxCell id="zxLDTP8MKAiiS-CQgnzt-22" value="&lt;b style=&quot;text-align: left&quot;&gt;Cases&lt;/b&gt;" style="rounded=1;whiteSpace=wrap;html=1;fillColor=none;" parent="1" vertex="1">
                    <mxGeometry y="80" width="120" height="60" as="geometry"/>
                </mxCell>
                <mxCell id="sr7qanjQtjL95LeXf6Ad-8" style="edgeStyle=orthogonalEdgeStyle;rounded=0;orthogonalLoop=1;jettySize=auto;html=1;exitX=0.5;exitY=1;exitDx=0;exitDy=0;entryX=0;entryY=0.5;entryDx=0;entryDy=0;" parent="1" source="zxLDTP8MKAiiS-CQgnzt-23" target="zxLDTP8MKAiiS-CQgnzt-27" edge="1">
                    <mxGeometry relative="1" as="geometry"/>
                </mxCell>
                <mxCell id="sr7qanjQtjL95LeXf6Ad-9" style="edgeStyle=orthogonalEdgeStyle;rounded=0;orthogonalLoop=1;jettySize=auto;html=1;exitX=0.5;exitY=1;exitDx=0;exitDy=0;entryX=0;entryY=0.5;entryDx=0;entryDy=0;" parent="1" source="zxLDTP8MKAiiS-CQgnzt-23" target="zxLDTP8MKAiiS-CQgnzt-26" edge="1">
                    <mxGeometry relative="1" as="geometry"/>
                </mxCell>
                <mxCell id="sr7qanjQtjL95LeXf6Ad-10" style="edgeStyle=orthogonalEdgeStyle;rounded=0;orthogonalLoop=1;jettySize=auto;html=1;exitX=0.5;exitY=1;exitDx=0;exitDy=0;entryX=0;entryY=0.5;entryDx=0;entryDy=0;" parent="1" source="zxLDTP8MKAiiS-CQgnzt-23" target="zxLDTP8MKAiiS-CQgnzt-25" edge="1">
                    <mxGeometry relative="1" as="geometry"/>
                </mxCell>
                <mxCell id="zxLDTP8MKAiiS-CQgnzt-23" value="&lt;b style=&quot;text-align: left&quot;&gt;Failure Factors&lt;/b&gt;" style="rounded=1;whiteSpace=wrap;html=1;fillColor=none;" parent="1" vertex="1">
                    <mxGeometry x="160" y="80" width="120" height="60" as="geometry"/>
                </mxCell>
                <mxCell id="sr7qanjQtjL95LeXf6Ad-2" style="edgeStyle=orthogonalEdgeStyle;rounded=0;orthogonalLoop=1;jettySize=auto;html=1;exitX=0.5;exitY=1;exitDx=0;exitDy=0;entryX=0.5;entryY=0;entryDx=0;entryDy=0;" parent="1" source="zxLDTP8MKAiiS-CQgnzt-24" target="zxLDTP8MKAiiS-CQgnzt-22" edge="1">
                    <mxGeometry relative="1" as="geometry"/>
                </mxCell>
                <mxCell id="sr7qanjQtjL95LeXf6Ad-3" style="edgeStyle=orthogonalEdgeStyle;rounded=0;orthogonalLoop=1;jettySize=auto;html=1;exitX=0.5;exitY=1;exitDx=0;exitDy=0;entryX=0.5;entryY=0;entryDx=0;entryDy=0;" parent="1" source="zxLDTP8MKAiiS-CQgnzt-24" target="zxLDTP8MKAiiS-CQgnzt-23" edge="1">
                    <mxGeometry relative="1" as="geometry"/>
                </mxCell>
                <mxCell id="zxLDTP8MKAiiS-CQgnzt-24" value="&lt;b style=&quot;text-align: left&quot;&gt;Overlap CB Insights with Gray Literature&lt;/b&gt;" style="rounded=1;whiteSpace=wrap;html=1;fillColor=none;" parent="1" vertex="1">
                    <mxGeometry x="80" y="-20" width="120" height="60" as="geometry"/>
                </mxCell>
                <mxCell id="zxLDTP8MKAiiS-CQgnzt-25" value="&lt;div&gt;&lt;span&gt;&lt;b&gt;Product strategy mistakes&lt;/b&gt;&lt;/span&gt;&lt;/div&gt;" style="rounded=1;whiteSpace=wrap;html=1;fillColor=none;align=center;" parent="1" vertex="1">
                    <mxGeometry x="320" y="360" width="120" height="60" as="geometry"/>
                </mxCell>
                <mxCell id="zxLDTP8MKAiiS-CQgnzt-26" value="&lt;div&gt;&lt;span&gt;&lt;b&gt;Lack of interest after initial crowdfunding&lt;/b&gt;&lt;/span&gt;&lt;/div&gt;" style="rounded=1;whiteSpace=wrap;html=1;fillColor=none;align=center;" parent="1" vertex="1">
                    <mxGeometry x="320" y="280" width="120" height="60" as="geometry"/>
                </mxCell>
                <mxCell id="zxLDTP8MKAiiS-CQgnzt-27" value="&lt;div style=&quot;text-align: left&quot;&gt;&lt;span&gt;&lt;b&gt;Lake of demand&lt;/b&gt;&lt;/span&gt;&lt;/div&gt;" style="rounded=1;whiteSpace=wrap;html=1;fillColor=none;" parent="1" vertex="1">
                    <mxGeometry x="320" y="200" width="120" height="60" as="geometry"/>
                </mxCell>
                <mxCell id="sr7qanjQtjL95LeXf6Ad-1" value="&lt;b style=&quot;text-align: left&quot;&gt;Hello&lt;/b&gt;" style="rounded=1;whiteSpace=wrap;html=1;fillColor=none;" parent="1" vertex="1">
                    <mxGeometry x="-160" y="440" width="120" height="60" as="geometry"/>
                </mxCell>
                <mxCell id="2" value="&lt;b style=&quot;text-align: left&quot;&gt;Lumos&lt;/b&gt;" style="rounded=1;whiteSpace=wrap;html=1;fillColor=none;" vertex="1" parent="1">
                    <mxGeometry x="-160" y="280" width="120" height="60" as="geometry"/>
                </mxCell>
                <mxCell id="3" value="&lt;span style=&quot;text-align: left&quot;&gt;Jawbone&lt;/span&gt;" style="rounded=1;whiteSpace=wrap;html=1;fillColor=none;fontStyle=1" vertex="1" parent="1">
                    <mxGeometry x="-160" y="200" width="120" height="60" as="geometry"/>
                </mxCell>
            </root>
        </mxGraphModel>
    </diagram>
</mxfile>